<svg
  height="115"
  version="1.0"
  xmlns="http://www.w3.org/2000/svg"
  viewBox="0 0 595 115"
>
  <g fill="#29B2FE">
    <path
      d="M99.9 20l6.7 9.2 33.5-9.2zM65.1 92l18.1-17.6-10.9-11.7zM97.2 20l-9.7 8.7 16.3.6zM59.5 20l3.5 7.1 19.2 1.2zM69.8 56.8L84 30.5l-41.2-2.2zM71.4 58.5l13.4 14.3 14.8-14.4 4.6-26.8-18-1z"
    />
  </g>
  <path
    fill="#FFF"
    d="M128.3 53.7h-3.7l-3.2 20.2c-.1.5-.6 1-1.1 1H113c-.5 0-.9-.4-.8-1l4.5-28.3c1.1-7.2 4.8-8.8 9.7-8.8 1.5 0 3.2.1 4.4.4.6.1.9.4.9 1l-.7 4.6c-.1.5-.6.9-1.2.9h-2c-1.2 0-1.6.5-1.9 1.9l-.2 1.3h3.7c.5 0 .9.4.8 1l-.8 4.9c-.1.5-.6.9-1.1.9zM146.6 54.1h-.7c-2.1 0-4.1.3-5.7 1.1l-3 18.7c-.1.5-.6 1.1-1.1 1.1h-7.2c-.6 0-1-.5-.9-1.1l4.1-26c.1-.5.4-1 1.1-1h7c.7 0 .9.2.8 1l-.2 1.2c2.5-2.3 4.3-2.5 6.9-2.5.8 0 .9.2.8 1l-.9 5.9c-.2.4-.4.6-1 .6zM170.8 63.5h-15v.1c-.4 2.5.4 4.1 3.9 4.1 2.6 0 7.3-.2 9.2-.4.8 0 1 .1.9.8l-.7 4.3c-.1.8-.4 1.1-1.2 1.3-3.3 1-6.7 1.5-10.7 1.5-6.5 0-12-3.4-10.6-12.6l.5-3.2c1.3-8.5 7-13.1 14.9-13.1 8.5 0 11.5 5.3 10.3 13.1l-.5 2.9c.1.8-.4 1.2-1 1.2zm-7-5.2c.5-2.9-.4-4.6-2.8-4.6-2.3 0-3.8 1.7-4.3 4.6v.1h7.1v-.1zM197.6 63.5h-15v.1c-.4 2.5.4 4.1 3.9 4.1 2.6 0 7.3-.2 9.2-.4.8 0 1 .1.9.8l-.7 4.3c-.1.8-.4 1.1-1.2 1.3-3.3 1-6.7 1.5-10.7 1.5-6.5 0-12-3.4-10.6-12.6l.5-3.2c1.3-8.5 7-13.1 14.9-13.1 8.5 0 11.5 5.3 10.3 13.1l-.5 2.9c.1.8-.4 1.2-1 1.2zm-7.1-5.2c.5-2.9-.4-4.6-2.8-4.6-2.3 0-3.8 1.7-4.3 4.6v.1h7.1v-.1zM207.4 74.9h-7.3c-.5 0-1-.5-.9-1.1l5.6-35.1c.1-.5.7-1 1.2-1h7.3c.5 0 .9.4.8 1l-5.6 35.1c-.1.6-.6 1.1-1.1 1.1zM233 74.9h-6.7c-.5 0-.9-.4-.8-1l.2-1c-2 1.3-4.6 2.4-7.3 2.4-3.8 0-7.9-2.1-6.9-8.6l.1-.6c.9-5.8 5.6-7.8 13.7-7.8h2.1l.2-1.4c.4-2.4-.3-2.8-2.7-2.8-2.7 0-7.1.2-8.5.3-.8 0-1-.4-.9-1l.7-4.7c.1-.7.5-1 1.1-1.2 1.7-.5 5.9-1.2 9-1.2 7 0 11.7 2.5 10.5 10.4l-2.7 17c0 .8-.5 1.2-1.1 1.2zm-6.1-11.6h-2.4c-2.4 0-3.5.8-3.8 2.8l-.1.5c-.3 1.6.8 2.1 2.1 2.1 1.2 0 2.5-.3 3.4-.7l.8-4.7zM260.9 74.9h-7.2c-.6 0-1-.5-.9-1.1l2.6-16.3c.4-2.5-.3-3.4-2.5-3.4-1.1 0-2.6.4-3.8 1l-3 18.7c-.1.5-.6 1.1-1.1 1.1h-7.2c-.6 0-1-.5-.9-1.1l4.1-26c.1-.5.6-1 1.1-1h6.7c.5 0 .9.4.8 1l-.2 1.1c2.9-1.9 5.7-2.5 8.4-2.5 7.6 0 7.7 5.3 6.8 11L262 73.7c0 .7-.5 1.2-1.1 1.2zM282.4 74.6c-1.7.4-3.9.8-6.7.8-7.4 0-10.8-4.7-9.5-12.6l.6-3.6c1.2-7.8 6.2-12.6 13.6-12.6 2.8 0 5.2.4 6.5.8.6.1.9.4.8 1l-.9 5.4c-.1.6-.5 1-1.2.9-1.6-.1-3.1-.3-5.5-.3-2.1 0-3.5 1.3-4.1 4.9l-.6 3.6c-.6 3.6.4 4.8 2.5 4.8 2.4 0 3.9-.1 5.6-.3.7-.1 1 .3.9.9l-.9 5.4c-.1.5-.5.7-1.1.9zM310.7 63.5h-15v.1c-.4 2.5.4 4.1 3.9 4.1 2.6 0 7.3-.2 9.2-.4.8 0 1 .1.9.8l-.7 4.3c-.1.8-.4 1.1-1.2 1.3-3.3 1-6.7 1.5-10.7 1.5-6.5 0-12-3.4-10.6-12.6l.5-3.2c1.3-8.5 7-13.1 14.9-13.1 8.5 0 11.5 5.3 10.3 13.1l-.5 2.9c.1.8-.4 1.2-1 1.2zm-7-5.2c.5-2.9-.4-4.6-2.8-4.6-2.3 0-3.8 1.7-4.3 4.6v.1h7.1v-.1zM325.9 46.9l-4.3 26.9c-.1.5-.6 1.1-1.1 1.1h-7.2c-.6 0-1-.5-.9-1.1l2.9-17.8 10.6-9.1z"
  />
  <path fill="#29B2FE" d="M328.4 46.9l-1.5 9.3 15.9-9.3z" />
  <g fill="#FFF">
    <path
      d="M370.8 71.8l-.6 2.8h-20.9l5.4-34.1h20.1l-.3 2.8h-17.3l-1.9 12.1h14.9l-.4 2.5h-14.9l-2.2 13.8h18.1zM392.3 74.6l2.9-18.1c.7-4.6-1.5-6.5-6.1-6.5-2.6 0-6 1.3-7.9 3.6l-3.3 21h-2.7l4.2-26.8 2-.2v3.2h.1c2.2-2.2 5.5-3.5 8.7-3.5 5.7 0 8.7 3 7.7 9.1L395 74.6h-2.7zM409.6 50l-2.9 18.1c-.5 3.2 1 4.5 3.6 4.5.8 0 1.7-.1 2.3-.4l-.1 2.2c-.8.3-2.1.5-3.3.5-4.2 0-6.1-2.2-5.3-6.8l2.9-18.2h-4.2l.4-2.2h4.2l1.7-7 2.2-.3-1.2 7.3h7l-.4 2.2h-6.9zM417.2 60.3c1.3-8.4 5.6-12.9 12.7-12.9 6 0 9.7 3.7 8.3 12.4-.1.4-.2 1-.3 1.4h-18c-1.2 8.6 1.2 11.5 7.6 11.5 2.8 0 5.2-.7 7.7-1.9v2.4c-2.5 1.3-5.2 2.1-8.4 2.1-8.5-.2-11.2-4.7-9.6-15zm18.6-1.2c1-6.8-1.8-9.3-6.2-9.3-5.3 0-8.1 3.1-9.4 9.3h15.6zM440.9 74.6l4.2-26.7 2.3-.2-.4 3-.5 3.7h.1c2.2-4.2 5.8-7 9.8-7 .9 0 1.8.1 2.5.3l-.7 2.9c-.7-.3-1.5-.4-2.4-.4-4.5 0-9 4.2-10.1 10.7l-2.2 13.7h-2.6zM469.6 75.1c-3.1 0-5.8-1-7.3-3.5h-.1l-.5 3.7-.9 5.7h-2.9l5.3-33.2 2.1-.2.1 3.1h.1c2.2-2.2 5.4-3.5 8.9-3.5 6.5 0 9.7 3.3 8.1 13.8-1.7 10.3-6.3 14.1-12.9 14.1zm3.7-25.1c-3.4 0-6.2 1.3-8.2 3.7l-2.4 15.1c.9 2 3 3.9 6.7 3.9 4.8 0 8.6-2.4 10.1-11.5 1.5-8.8-1.1-11.2-6.2-11.2zM485.4 74.6l4.2-26.7 2.3-.2-.4 3-.5 3.7h.1c2.2-4.2 5.8-7 9.8-7 .9 0 1.8.1 2.5.3l-.7 2.9c-.7-.3-1.5-.4-2.4-.4-4.5 0-9 4.2-10.1 10.7L488 74.6h-2.6zM504.7 74.6l4.2-26.7 2.8-.2-4.3 26.9h-2.7zm6.5-32.3c-1.4 0-2.1-.5-1.8-1.9.2-1.2 1.1-1.9 2.4-1.9s2 .7 1.8 1.9c-.1 1.3-1 1.9-2.4 1.9zM522.2 75.1c-3.2 0-6-.9-7.8-2.5l.8-2.5c1.7 1.6 4.5 2.5 7.3 2.5 4.5 0 6.8-2.3 7.3-5.4 1.1-7.2-13.8-4.1-12.4-13 .7-4.4 4.2-7 10-7 2.5 0 4.8.5 6.8 1.5l-.7 2.4c-2.1-1-4.4-1.5-6.6-1.5-3.8 0-6.5 1.7-6.9 4.5-1.1 6.7 13.9 3.4 12.4 12.8-.7 5-4 8.2-10.2 8.2zM536.6 60.3c1.3-8.4 5.6-12.9 12.7-12.9 6 0 9.7 3.7 8.3 12.4-.1.4-.2 1-.3 1.4h-18c-1.2 8.6 1.2 11.5 7.6 11.5 2.8 0 5.2-.7 7.7-1.9v2.4c-2.5 1.3-5.2 2.1-8.4 2.1-8.6-.2-11.3-4.7-9.6-15zm18.6-1.2c1-6.8-1.8-9.3-6.2-9.3-5.3 0-8.1 3.1-9.4 9.3h15.6z"
    />
  </g>
</svg>
