<svg
  xmlns="http://www.w3.org/2000/svg"
  height="115"
  version="1.0"
  viewBox="0 0 140 115"
>
  <g xmlns="http://www.w3.org/2000/svg" fill="transparent">
    <path
      xmlns="http://www.w3.org/2000/svg"
      stroke="rgba(41, 178, 254, 0.1)"
      stroke-width="10"
      d="M99.9 20l6.7 9.2 33.5-9.2zM65.1 92l18.1-17.6-10.9-11.7zM97.2 20l-9.7 8.7 16.3.6zM59.5 20l3.5 7.1 19.2 1.2zM69.8 56.8L84 30.5l-41.2-2.2zM71.4 58.5l13.4 14.3 14.8-14.4 4.6-26.8-18-1z"
    />
    <path
      stroke="#29b2fe"
      stroke-width="3"
      d="M99.9 20l6.7 9.2 33.5-9.2zM65.1 92l18.1-17.6-10.9-11.7zM97.2 20l-9.7 8.7 16.3.6zM59.5 20l3.5 7.1 19.2 1.2zM69.8 56.8L84 30.5l-41.2-2.2zM71.4 58.5l13.4 14.3 14.8-14.4 4.6-26.8-18-1z"
    />
    <path
      xmlns="http://www.w3.org/2000/svg"
      stroke="white"
      stroke-width="1"
      d="M99.9 20l6.7 9.2 33.5-9.2zM65.1 92l18.1-17.6-10.9-11.7zM97.2 20l-9.7 8.7 16.3.6zM59.5 20l3.5 7.1 19.2 1.2zM69.8 56.8L84 30.5l-41.2-2.2zM71.4 58.5l13.4 14.3 14.8-14.4 4.6-26.8-18-1z"
    />
  </g>
</svg>
